<svg width="80" height="80" viewBox="0 0 80 80" fill="none" xmlns="http://www.w3.org/2000/svg">
<rect width="80" height="80" rx="12" fill="#EDF1FC"/>
<path d="M40 26.8438C56.0312 26.8438 68.4062 33.5938 68.4062 41C68.4062 48.5 56.0312 55.25 40 55.25C23.875 55.25 11.5 48.5 11.5 41C11.5 33.5938 23.875 26.8438 40 26.8438ZM40 25.25C23.4062 25.25 10 32.2812 10 41C10 49.7188 23.4062 56.8438 40 56.8438C56.5 56.8438 70 49.7188 70 41C70 32.2812 56.5 25.25 40 25.25ZM30.4375 39.7812C29.6875 43.5312 27.0625 43.1562 23.875 43.1562L25.0938 36.5938C28.6562 36.5938 31.0938 36.2188 30.4375 39.7812ZM19.0938 49.9062H22.5625L23.3125 45.6875C27.1562 45.6875 29.5938 45.9688 31.8438 43.9062C34.2812 41.6562 34.8438 37.625 33.1562 35.6562C32.2188 34.625 30.8125 34.0625 28.75 34.0625H22.1875L19.0938 49.9062ZM36.5312 29.8438L33.4375 45.6875H36.8125L38.5938 36.5938C41.4062 36.5938 42.5312 36.5 43.0938 37.0625C43.5625 37.625 43.2812 38.1875 41.875 45.6875H45.3438C46.8438 38 47.5 36.3125 46.0938 35.0938C44.7812 33.875 42.0625 34.0625 39.0625 34.0625L39.9062 29.8438H36.5312ZM57.3438 39.7812C56.5938 43.625 53.875 43.1562 50.6875 43.1562L52 36.5938C55.5625 36.5938 58 36.2188 57.3438 39.7812ZM46 49.9062H49.4688L50.2188 45.6875C54.25 45.6875 56.5 45.875 58.6562 43.9062C61.1875 41.6562 61.75 37.625 60.0625 35.6562C59.125 34.625 57.625 34.0625 55.6562 34.0625H49.0938L46 49.9062Z" fill="#2351DC"/>
</svg>
