<svg width="64" height="54" viewBox="0 0 64 54" fill="none" xmlns="http://www.w3.org/2000/svg">
<path d="M59.6364 0.818115H10.1819C7.70914 0.818115 5.81827 2.70899 5.81827 5.18174V19.7272C5.81827 20.6 6.40014 21.1817 7.27277 21.1817C8.14539 21.1817 8.72727 20.5999 8.72727 19.7272V5.18187C8.72727 4.30912 9.30914 3.72737 10.1818 3.72737H59.6363C60.509 3.72737 61.0908 4.30924 61.0908 5.18187V40.091C61.0908 40.9637 60.5089 41.5455 59.6363 41.5455H24.7273C23.8545 41.5455 23.2728 42.1274 23.2728 43C23.2728 43.8726 23.8546 44.4545 24.7273 44.4545H27.6364V48.8181C27.6364 49.6909 27.0545 50.2726 26.1819 50.2726H24.7274C23.8546 50.2726 23.2729 50.8545 23.2729 51.7271C23.2729 52.5997 23.8548 53.1816 24.7274 53.1816H45.091C45.9638 53.1816 46.5455 52.5997 46.5455 51.7271C46.5455 50.8545 45.9636 50.2726 45.091 50.2726H43.6365C42.7638 50.2726 42.182 49.6907 42.182 48.8181V44.4545H59.6365C62.1093 44.4545 64.0001 42.5636 64.0001 40.0909V5.18187C64 2.70912 62.1092 0.818115 59.6364 0.818115ZM30.2545 50.2727C30.4 49.8364 30.5454 49.4 30.5454 48.8182V44.4546H39.2726V48.8182C39.2726 49.4001 39.4181 49.8364 39.5635 50.2727H30.2545Z" fill="#2351DC"/>
<path d="M56.7272 32.8181H24.7272C23.8545 32.8181 23.2728 33.4 23.2728 34.2726C23.2728 35.1452 23.8546 35.7271 24.7272 35.7271H56.7272C57.6 35.7271 58.1818 35.1452 58.1818 34.2726C58.1818 33.4 57.6 32.8181 56.7272 32.8181Z" fill="#2351DC"/>
<path d="M16 24.0908H4.36363C1.89088 24.0908 0 25.9818 0 28.4544V48.8181C0 51.2908 1.89088 53.1817 4.36363 53.1817H16C18.4727 53.1817 20.3636 51.2908 20.3636 48.8181V28.4544C20.3636 25.9818 18.4727 24.0908 16 24.0908ZM17.4545 48.8181C17.4545 49.6908 16.8726 50.2726 16 50.2726H4.36363C3.49088 50.2726 2.90913 49.6907 2.90913 48.8181V28.4544C2.90913 27.5817 3.491 26.9999 4.36363 26.9999H16C16.8727 26.9999 17.4545 27.5818 17.4545 28.4544V48.8181Z" fill="#2351DC"/>
</svg>
