<svg width="64" height="56" viewBox="0 0 64 56" fill="none" xmlns="http://www.w3.org/2000/svg">
<path d="M58.1084 0H29.9917C26.7432 0 24.1001 2.64307 24.1001 5.8916V23.9282L18.8794 21.332C18.7031 21.2441 18.5239 21.1611 18.3433 21.0825C19.876 19.4824 20.8208 17.3145 20.8208 14.9292C20.8208 10.0195 16.8267 6.0249 11.917 6.0249C7.00684 6.0249 3.0127 10.0195 3.0127 14.9292C3.0127 17.5972 4.19385 19.9937 6.05908 21.627C2.62402 23.5596 0 27.3296 0 32V38.0249C0 40.6187 1.68408 42.8262 4.0166 43.6108V54.0918C4.0166 55.127 4.85596 55.9668 5.8916 55.9668H17.9414C18.9771 55.9668 19.8164 55.127 19.8164 54.0918V33.0249L25.8193 36.0259C28.1167 37.1743 31.2329 36.4897 32.6421 33.875H39.3647L32.2461 53.4507C31.8921 54.4238 32.3945 55.5 33.3677 55.8535C34.48 56.2583 35.4692 55.5605 35.7705 54.7324L43.355 33.875H44.6694L52.3315 54.7383C52.6226 55.5298 53.6045 56.2681 54.7383 55.8516C55.71 55.4946 56.209 54.4175 55.8516 53.4453L48.6641 33.875H58.1084C61.2939 33.875 64 31.3052 64 27.9834V5.8916C64 2.56934 61.2939 0 58.1084 0ZM6.7627 14.9292C6.7627 12.0869 9.07471 9.7749 11.9165 9.7749C14.7588 9.7749 17.0708 12.0869 17.0708 14.9292C17.0708 17.771 14.7588 20.083 11.9165 20.083C9.07471 20.083 6.7627 17.771 6.7627 14.9292ZM29.4375 31.8701C29.4326 31.8838 29.4277 31.8979 29.4233 31.9121C29.2954 32.269 29.0063 32.5698 28.6523 32.7153C28.2778 32.8677 27.8564 32.8516 27.4966 32.6719C23.9312 30.8882 18.7793 28.3145 18.7793 28.3145C17.5352 27.6924 16.0664 28.5986 16.0664 29.9917V52.2168H7.7666V42.0415C7.7666 41.0063 6.92676 40.1665 5.8916 40.1665C4.71045 40.1665 3.75 39.2061 3.75 38.0249V32C3.75 27.4185 7.48047 23.8335 11.9165 23.8335H13.5732C14.8301 23.8335 16.0854 24.1284 17.207 24.6885C17.207 24.6885 26.5073 29.3135 28.876 30.4932C29.3833 30.7451 29.6245 31.3369 29.4375 31.8701ZM60.25 27.9834C60.25 28.5562 60.0278 29.0938 59.6235 29.498C59.2256 29.8965 58.6733 30.125 58.1084 30.125H33.0498C33.0464 30.1147 33.0439 30.1045 33.0405 30.0947L37.6938 20.7886C38.1567 19.8623 37.7817 18.7363 36.8555 18.2729C35.9297 17.8101 34.8032 18.1851 34.3398 19.1113L30.3711 27.0483C29.6313 26.6797 28.7715 26.2515 27.8501 25.7935V5.8916C27.8501 4.71094 28.8105 3.75 29.9917 3.75H58.1084C58.6733 3.75 59.2256 3.97852 59.624 4.37793C60.0278 4.78125 60.25 5.31885 60.25 5.8916V27.9834Z" fill="url(#paint0_linear_6_303)"/>
<defs>
<linearGradient id="paint0_linear_6_303" x1="32" y1="0" x2="32" y2="55.9719" gradientUnits="userSpaceOnUse">
<stop stop-color="#2351DC"/>
<stop offset="0.833333" stop-color="#2351DC" stop-opacity="0.979167"/>
<stop offset="1" stop-color="#2351DC" stop-opacity="0"/>
</linearGradient>
</defs>
</svg>
